<svg width="170" height="129" fill="none" xmlns="http://www.w3.org/2000/svg"><path opacity=".09" d="M130.519 34.977C125.121 14.826 106.873 0 85.188 0c-25.94 0-46.961 21.203-46.961 47.35 0 .195.015.381.015.568C16.426 50.55 0 61.958 0 75.646c0 8.036 5.676 15.285 14.773 20.44a21.15 21.15 0 0 0-.872 5.972c0 14.584 15.035 26.412 33.593 26.412 11.846 0 22.256-4.828 28.234-12.108 9.985 7.53 23.136 12.108 37.554 12.108 31.215 0 56.522-21.436 56.522-47.887 0-21.35-16.496-39.431-39.285-45.606Z" fill="#C6C6C6"/></svg>