<svg width="84" height="122" fill="none" xmlns="http://www.w3.org/2000/svg"><g clip-path="url(#a)"><path d="M85.654 95.483c19.932-14.056 25.014-41.155 11.352-60.527C83.344 15.583 56.11 11.274 36.18 25.33 16.25 39.386 11.167 66.485 24.83 85.857c13.662 19.373 40.894 23.682 60.825 9.626Z" fill="#FAD34F"/><path d="M57.168 40.788c.924 1.31-.529 1.43-1.876 2.38-1.348.951-2.078 2.373-3.003 1.06-.925-1.311-.58-3.14.767-4.09 1.346-.953 3.187-.662 4.112.65ZM66.491 34.213c.924 1.31-.529 1.43-1.876 2.381-1.348.95-2.078 2.372-3.003 1.06-.925-1.312-.58-3.142.767-4.092 1.346-.952 3.187-.66 4.112.651ZM68.467 41.934c1.804 2.559 1.133 6.138-1.5 7.994-2.631 1.856-6.228 1.287-8.032-1.271-1.804-2.559 2.26-1.328 4.891-3.184 2.632-1.856 2.837-6.097 4.641-3.539Z" fill="#fff"/></g><defs><clipPath id="a"><path fill="#fff" transform="rotate(-35.193 80.249 25.45)" d="M0 0h88.32v85.844H0z"/></clipPath></defs></svg>