<svg width="299" height="298" fill="none" xmlns="http://www.w3.org/2000/svg"><g clip-path="url(#a)"><path d="M218.884 225.942c-43.664 39.819-110.436 37.695-149.14-4.744-38.703-42.44-34.681-109.125 8.983-148.945 43.664-39.82 110.436-37.695 149.139 4.745s34.682 109.124-8.982 148.944Z" fill="#F472B7"/><path d="M104.344 129.984c2.616 2.869 3.661-.506 6.613-3.197 2.952-2.692 6.697-3.677 4.076-6.551-2.621-2.874-7.13-3.013-10.082-.321-2.956 2.687-3.228 7.195-.607 10.069ZM83.92 148.61c2.616 2.869 3.66-.505 6.612-3.197s6.697-3.677 4.076-6.551c-2.62-2.874-7.13-3.012-10.082-.321-2.956 2.687-3.228 7.195-.607 10.069ZM101.157 157.316c5.111 5.604 13.93 5.885 19.696.626 5.766-5.258 6.297-14.066 1.186-19.67-5.111-5.605-4.32 4.653-10.086 9.911-5.766 5.259-15.907 3.528-10.796 9.133Z" fill="#fff"/></g><defs><clipPath id="a"><path fill="#fff" transform="scale(-1 1) rotate(42.363 -79.06 -204.023)" d="M0 0h214v208H0z"/></clipPath></defs></svg>